<svg xmlns="http://www.w3.org/2000/svg" style="display: none">
  <symbol id="home" viewBox="0 0 16 17"><path d="M13.36 5.04667L9.51999 2.36C8.47333 1.62667 6.86666 1.66667 5.85999 2.44667L2.51999 5.05333C1.85333 5.57333 1.32666 6.64 1.32666 7.48V12.08C1.32666 13.78 2.70666 15.1667 4.40666 15.1667H11.5933C13.2933 15.1667 14.6733 13.7867 14.6733 12.0867V7.56667C14.6733 6.66667 14.0933 5.56 13.36 5.04667ZM8.49999 12.5C8.49999 12.7733 8.27333 13 7.99999 13C7.72666 13 7.49999 12.7733 7.49999 12.5V10.5C7.49999 10.2267 7.72666 10 7.99999 10C8.27333 10 8.49999 10.2267 8.49999 10.5V12.5Z"/></symbol>
  <symbol id="airplane" viewBox="0 0 16 17"><g id="airplane-square"><g id="vuesax/linear/airplane-square"><g id="airplane-square_2"><path id="Vector" d="M6.57326 13.1667L7.69327 12.22C7.85993 12.08 8.13993 12.08 8.31327 12.22L9.4266 13.1667C9.6866 13.3 10.0066 13.1667 10.0999 12.8867L10.3133 12.2467C10.3666 12.0934 10.3133 11.8667 10.1999 11.7534L9.1066 10.6534C9.0266 10.5734 8.9666 10.42 8.9666 10.3134V9.08003C8.9666 8.80003 9.17326 8.6667 9.43326 8.77337L11.6666 9.73337C12.0333 9.89337 12.3399 9.69337 12.3399 9.29337V8.67337C12.3399 8.35337 12.0999 7.98003 11.7999 7.85337L9.17326 6.72003C9.05993 6.67337 8.97327 6.53337 8.97327 6.41337V5.03337C8.97327 4.58003 8.63993 4.0467 8.23993 3.84003C8.09326 3.7667 7.9266 3.7667 7.77993 3.84003C7.37327 4.04003 7.0466 4.58003 7.0466 5.03337V6.41337C7.0466 6.53337 6.95327 6.67337 6.8466 6.72003L4.21993 7.85337C3.9266 7.98003 3.67993 8.35337 3.67993 8.67337V9.29337C3.67993 9.69337 3.97993 9.89337 4.35327 9.73337L6.5866 8.77337C6.83993 8.66003 7.05327 8.80003 7.05327 9.08003V10.3134C7.05327 10.4267 6.9866 10.58 6.91327 10.6534L5.79993 11.7467C5.6866 11.86 5.63326 12.0867 5.6866 12.24L5.89993 12.88C5.99327 13.1667 6.3066 13.3 6.57326 13.1667Z" stroke-linecap="round" stroke-linejoin="round"/><path id="Vector_2" d="M5.99992 15.1667H9.99992C13.3333 15.1667 14.6666 13.8334 14.6666 10.5V6.50004C14.6666 3.16671 13.3333 1.83337 9.99992 1.83337H5.99992C2.66659 1.83337 1.33325 3.16671 1.33325 6.50004V10.5C1.33325 13.8334 2.66659 15.1667 5.99992 15.1667Z" stroke-linecap="round" stroke-linejoin="round"/></g></g></g></symbol>
  <symbol id="volume" viewBox="0 0 16 17"><path d="M2.21997 7.16661V9.83327C2.21997 11.1666 2.88664 11.8333 4.21997 11.8333H5.1733C5.41997 11.8333 5.66664 11.9066 5.87997 12.0333L7.82664 13.2533C9.50664 14.3066 10.8866 13.5399 10.8866 11.5599V5.43994C10.8866 3.45327 9.50664 2.69327 7.82664 3.74661L5.87997 4.96661C5.66664 5.09327 5.41997 5.16661 5.1733 5.16661H4.21997C2.88664 5.16661 2.21997 5.83327 2.21997 7.16661Z"/><path d="M12.8867 5.83337C14.0734 7.41337 14.0734 9.58671 12.8867 11.1667" stroke-linecap="round" stroke-linejoin="round"/></symbol>
  <symbol id="phone" viewBox="0 0 16 17"><path d="M14.6466 12.72C14.6466 12.96 14.5933 13.2067 14.4799 13.4467C14.3666 13.6867 14.2199 13.9134 14.0266 14.1267C13.6999 14.4867 13.3399 14.7467 12.9333 14.9134C12.5333 15.08 12.0999 15.1667 11.6333 15.1667C10.9533 15.1667 10.2266 15.0067 9.45992 14.68C8.69325 14.3534 7.92659 13.9134 7.16659 13.36C6.39992 12.8 5.67325 12.18 4.97992 11.4934C4.29325 10.8 3.67325 10.0734 3.11992 9.31337C2.57325 8.55337 2.13325 7.79337 1.81325 7.04004C1.49325 6.28004 1.33325 5.55337 1.33325 4.86004C1.33325 4.40671 1.41325 3.97337 1.57325 3.57337C1.73325 3.16671 1.98659 2.79337 2.33992 2.46004C2.76659 2.04004 3.23325 1.83337 3.72659 1.83337C3.91325 1.83337 4.09992 1.87337 4.26659 1.95337C4.43992 2.03337 4.59325 2.15337 4.71325 2.32671L6.25992 4.50671C6.37992 4.67337 6.46659 4.82671 6.52659 4.97337C6.58659 5.11337 6.61992 5.25337 6.61992 5.38004C6.61992 5.54004 6.57325 5.70004 6.47992 5.85337C6.39325 6.00671 6.26659 6.16671 6.10659 6.32671L5.59992 6.85337C5.52659 6.92671 5.49325 7.01337 5.49325 7.12004C5.49325 7.17337 5.49992 7.22004 5.51325 7.27337C5.53325 7.32671 5.55325 7.36671 5.56659 7.40671C5.68659 7.62671 5.89325 7.91337 6.18659 8.26004C6.48659 8.60671 6.80659 8.96004 7.15325 9.31337C7.51325 9.66671 7.85992 9.99337 8.21325 10.2934C8.55992 10.5867 8.84659 10.7867 9.07325 10.9067C9.10659 10.92 9.14659 10.94 9.19325 10.96C9.24659 10.98 9.29992 10.9867 9.35992 10.9867C9.47325 10.9867 9.55992 10.9467 9.63325 10.8734L10.1399 10.3734C10.3066 10.2067 10.4666 10.08 10.6199 10C10.7733 9.90671 10.9266 9.86004 11.0933 9.86004C11.2199 9.86004 11.3533 9.88671 11.4999 9.94671C11.6466 10.0067 11.7999 10.0934 11.9666 10.2067L14.1733 11.7734C14.3466 11.8934 14.4666 12.0334 14.5399 12.2C14.6066 12.3667 14.6466 12.5334 14.6466 12.72Z" stroke-miterlimit="10"/></symbol>
  <symbol id="bus" viewBox="0 0 18 19"><path d="M12.675 17H5.325C4.05 17 3 15.9575 3 14.675V4.325C3 3.05 4.0425 2 5.325 2H12.675C13.95 2 15 3.0425 15 4.325V14.675C15 15.9575 13.9575 17 12.675 17Z" stroke-opacity="0.9" stroke-width="1.3" stroke-linecap="round" stroke-linejoin="round"/><path d="M13.875 10.25H4.125C3.5025 10.25 3 9.7475 3 9.125V7.625C3 7.0025 3.5025 6.5 4.125 6.5H13.875C14.4975 6.5 15 7.0025 15 7.625V9.125C15 9.7475 14.4975 10.25 13.875 10.25Z" stroke-opacity="0.9" stroke-width="1.3" stroke-linecap="round" stroke-linejoin="round"/><path d="M6.37088 13.775H6.37762" stroke-opacity="0.9" stroke-width="1.3" stroke-linecap="round" stroke-linejoin="round"/><path d="M11.6209 13.775H11.6276" stroke-opacity="0.9" stroke-width="1.3" stroke-linecap="round" stroke-linejoin="round"/><path d="M7.125 4.25H10.875" stroke-opacity="0.9" stroke-width="1.3" stroke-linecap="round" stroke-linejoin="round"/></symbol>
  <symbol id="ship" viewBox="0 0 18 19"><path d="M15.3151 9.77751C15.9676 10.04 16.3726 10.8125 16.2226 11.495L15.9151 12.89C15.3826 15.29 13.5001 17 10.7851 17H7.21505C4.50005 17 2.61755 15.29 2.08505 12.89L1.77755 11.495C1.62755 10.8125 2.03254 10.04 2.68504 9.77751L3.75005 9.35L7.88256 7.69251C8.60256 7.40751 9.39755 7.40751 10.1175 7.69251L14.2501 9.35L15.3151 9.77751Z" stroke-opacity="0.9" stroke-width="1.3" stroke-linecap="round" stroke-linejoin="round"/><path d="M9 17V8" stroke-opacity="0.9" stroke-width="1.3" stroke-linecap="round" stroke-linejoin="round"/><path d="M14.25 6.5V9.34999L10.1175 7.6925C9.39749 7.4075 8.60251 7.4075 7.88251 7.6925L3.75 9.34999V6.5C3.75 5.2625 4.7625 4.25 6 4.25H12C13.2375 4.25 14.25 5.2625 14.25 6.5Z" stroke-opacity="0.9" stroke-width="1.3" stroke-linecap="round" stroke-linejoin="round"/><path d="M10.875 4.25H7.125V2.75C7.125 2.3375 7.4625 2 7.875 2H10.125C10.5375 2 10.875 2.3375 10.875 2.75V4.25Z" stroke-opacity="0.9" stroke-width="1.3" stroke-linecap="round" stroke-linejoin="round"/></symbol>
  <symbol id="airplane-two" viewBox="0 0 26 19"><path d="M16.2916 16.214L16.4879 13.9389C16.5144 13.5941 16.822 13.2866 17.1667 13.26L19.4418 13.0638C19.8714 12.9206 20.0782 12.4274 19.8767 12.0138L19.4047 11.0751C19.2933 10.847 18.9857 10.6561 18.7311 10.6561L16.3181 10.6508C16.1431 10.6561 15.9045 10.5554 15.7825 10.4334L14.2711 8.92194C14.0483 8.6992 14.1067 8.42873 14.3984 8.30676L18.1266 6.82713C18.7099 6.59379 18.8266 6.04225 18.3811 5.59677L17.697 4.91264C17.3417 4.55732 16.6682 4.41413 16.2015 4.60505L11.9588 6.2915C11.8369 6.33923 11.6512 6.30211 11.5558 6.20665L9.96479 4.61566C9.46628 4.11715 8.51169 3.89441 7.83817 4.11184C7.59952 4.19139 7.4139 4.37701 7.33435 4.61566C7.11692 5.28918 7.34496 6.24908 7.84347 6.74759L9.43446 8.33858C9.52992 8.43404 9.56704 8.61965 9.51931 8.74163L7.83817 12.979C7.64195 13.4404 7.78513 14.1139 8.14046 14.4692L8.82458 15.1533C9.27006 15.5988 9.8216 15.4821 10.0549 14.8988L11.5346 11.1705C11.6459 10.8789 11.927 10.8205 12.1498 11.0433L13.6612 12.5547C13.7832 12.6767 13.8839 12.9153 13.8839 13.085L13.8892 15.498C13.8892 15.7526 14.0748 16.0549 14.3082 16.1716L15.2469 16.6435C15.6499 16.8557 16.1484 16.6542 16.2916 16.214Z" stroke-opacity="0.9" stroke-width="1.3" stroke-linecap="round" stroke-linejoin="round"/></symbol>
  <symbol id="suv" viewBox="0 0 70.866 70.866"><g><g><path d="M8.861,13.346h34.813 c2.97,0,5.631,1.836,6.686,4.612l3.356,8.835c0.772,2.031,2.721,3.375,4.895,3.375h2.123c4.651,0,8.422,3.771,8.422,8.422v4.207 c0,4.396-3.564,7.961-7.961,7.961H8.169c-3.568,0-6.46-2.892-6.46-6.459v-23.8C1.709,16.549,4.911,13.346,8.861,13.346z" stroke-linejoin="round" stroke-miterlimit="10" stroke-width="3"/><circle cx="14.905" cy="50.758" r="6.763" stroke-linejoin="round" stroke-miterlimit="10" stroke-width="3"/><circle cx="54.148" cy="50.758" r="6.763" stroke-linejoin="round" stroke-miterlimit="10" stroke-width="3"/><path d="M43.675,18.456 c0.842,0,1.61,0.53,1.909,1.317l2.613,6.879c0.252,0.663,0.558,1.297,0.905,1.901H38.481V18.456H43.675z" stroke-linejoin="round" stroke-miterlimit="10" stroke-width="3"/><rect height="10.098" stroke-linejoin="round" stroke-miterlimit="10" stroke-width="3" width="10.723" x="22.649" y="18.456"/><path d="M6.818,20.499 c0-1.126,0.917-2.043,2.043-2.043h8.679v10.098H6.818V20.499z" stroke-linejoin="round" stroke-miterlimit="10" stroke-width="3"/><line stroke-linejoin="round" stroke-miterlimit="10" stroke-width="3" x1="38.481" x2="41.316" y1="34.992" y2="34.992"/></g></g></symbol>
  <symbol id="profile" viewBox="0 0 14 14"><path d="M6.99996 1.16663C5.47163 1.16663 4.22913 2.40913 4.22913 3.93746C4.22913 5.43663 5.40163 6.64996 6.92996 6.70246C6.97663 6.69663 7.02329 6.69663 7.05829 6.70246C7.06996 6.70246 7.07579 6.70246 7.08746 6.70246C7.09329 6.70246 7.09329 6.70246 7.09913 6.70246C8.59246 6.64996 9.76496 5.43663 9.77079 3.93746C9.77079 2.40913 8.52829 1.16663 6.99996 1.16663Z"/><path d="M9.96331 8.25418C8.33581 7.16918 5.68164 7.16918 4.04248 8.25418C3.30164 8.75001 2.89331 9.42085 2.89331 10.1383C2.89331 10.8558 3.30164 11.5208 4.03664 12.0108C4.85331 12.5592 5.92664 12.8333 6.99998 12.8333C8.07331 12.8333 9.14664 12.5592 9.96331 12.0108C10.6983 11.515 11.1066 10.85 11.1066 10.1267C11.1008 9.40918 10.6983 8.74418 9.96331 8.25418Z"/></symbol>
  <symbol id="arrow-down" viewBox="0 0 16 16"><path d="M13.28 5.96667L8.9333 10.3133C8.41997 10.8267 7.57997 10.8267 7.06664 10.3133L2.71997 5.96667" stroke-width="1.5" stroke-miterlimit="10" stroke-linecap="round" stroke-linejoin="round"/></symbol>
  <symbol id="login" viewBox="0 0 24 24"><path d="M11.6799 14.62L14.2399 12.06L11.6799 9.5" stroke-width="1.5" stroke-miterlimit="10" stroke-linecap="round" stroke-linejoin="round"/><path d="M4 12.0601H14.17" stroke-width="1.5" stroke-miterlimit="10" stroke-linecap="round" stroke-linejoin="round"/><path d="M12 4C16.42 4 20 7 20 12C20 17 16.42 20 12 20" stroke-width="1.5" stroke-miterlimit="10" stroke-linecap="round" stroke-linejoin="round"/></symbol>
  <symbol id="logout" viewBox="0 0 17 17"><path d="M12.1267 10.2467L13.8333 8.54004L12.1267 6.83337" stroke-width="1.5" stroke-miterlimit="10" stroke-linecap="round" stroke-linejoin="round"/><path d="M7.00667 8.54004H13.7867" stroke-width="1.5" stroke-miterlimit="10" stroke-linecap="round" stroke-linejoin="round"/><path d="M8.34 13.8333C5.39333 13.8333 3.00667 11.8333 3.00667 8.49996C3.00667 5.16663 5.39333 3.16663 8.34 3.16663" stroke-width="1.5" stroke-miterlimit="10" stroke-linecap="round" stroke-linejoin="round"/></symbol>
  <symbol id="arrow-right" viewBox="0 0 24 24"><path d="M14.4299 5.93005L20.4999 12.0001L14.4299 18.0701" stroke-width="2" stroke-miterlimit="10" stroke-linecap="round" stroke-linejoin="round"/><path opacity="0.4" d="M3.5 12H20.33" stroke-width="2" stroke-miterlimit="10" stroke-linecap="round" stroke-linejoin="round"/></symbol>
  <symbol id="location" viewBox="0 0 18 19"><path d="M8.99997 10.5725C10.2923 10.5725 11.34 9.5248 11.34 8.23246C11.34 6.94011 10.2923 5.89246 8.99997 5.89246C7.70763 5.89246 6.65997 6.94011 6.65997 8.23246C6.65997 9.5248 7.70763 10.5725 8.99997 10.5725Z" stroke-opacity="0.5" stroke-width="1.5"/><path d="M2.71503 6.8675C4.19253 0.372502 13.815 0.380002 15.285 6.875C16.1475 10.685 13.7775 13.91 11.7 15.905C10.1925 17.36 7.80753 17.36 6.29253 15.905C4.22253 13.91 1.85253 10.6775 2.71503 6.8675Z" stroke-opacity="0.5" stroke-width="1.5"/></symbol>
  <symbol id="global-search" viewBox="0 0 19 19"><path d="M17 9.5C17 5.36 13.64 2 9.5 2C5.36 2 2 5.36 2 9.5C2 13.64 5.36 17 9.5 17" stroke-width="1.5" stroke-linecap="round" stroke-linejoin="round"/><path d="M6.49995 2.75H7.24995C5.78745 7.13 5.78745 11.87 7.24995 16.25H6.49995" stroke-width="1.5" stroke-linecap="round" stroke-linejoin="round"/><path d="M11.75 2.75C12.4775 4.94 12.845 7.22 12.845 9.5" stroke-width="1.5" stroke-linecap="round" stroke-linejoin="round"/><path d="M2.75 12.5V11.75C4.94 12.4775 7.22 12.845 9.5 12.845" stroke-width="1.5" stroke-linecap="round" stroke-linejoin="round"/><path d="M2.75 7.24995C7.13 5.78745 11.87 5.78745 16.25 7.24995" stroke-width="1.5" stroke-linecap="round" stroke-linejoin="round"/><path d="M14.15 16.55C15.4755 16.55 16.55 15.4755 16.55 14.15C16.55 12.8245 15.4755 11.75 14.15 11.75C12.8245 11.75 11.75 12.8245 11.75 14.15C11.75 15.4755 12.8245 16.55 14.15 16.55Z" stroke-width="1.5" stroke-linecap="round" stroke-linejoin="round"/><path d="M17 17L16.25 16.25" stroke-width="1.5" stroke-linecap="round" stroke-linejoin="round"/></symbol>
  <symbol id="calendar" viewBox="0 0 18 19"><path d="M6 2V4.25" stroke-width="1.5" stroke-miterlimit="10" stroke-linecap="round" stroke-linejoin="round"/><path d="M12 2V4.25" stroke-width="1.5" stroke-miterlimit="10" stroke-linecap="round" stroke-linejoin="round"/><path d="M2.625 7.3175H15.375" stroke-width="1.5" stroke-miterlimit="10" stroke-linecap="round" stroke-linejoin="round"/><path d="M15.75 6.875V13.25C15.75 15.5 14.625 17 12 17H6C3.375 17 2.25 15.5 2.25 13.25V6.875C2.25 4.625 3.375 3.125 6 3.125H12C14.625 3.125 15.75 4.625 15.75 6.875Z" stroke-width="1.5" stroke-miterlimit="10" stroke-linecap="round" stroke-linejoin="round"/><path d="M11.771 10.775H11.7778" stroke-width="1.5" stroke-linecap="round" stroke-linejoin="round"/><path d="M11.771 13.025H11.7778" stroke-width="1.5" stroke-linecap="round" stroke-linejoin="round"/><path d="M8.99661 10.775H9.00335" stroke-width="1.5" stroke-linecap="round" stroke-linejoin="round"/><path d="M8.99661 13.025H9.00335" stroke-width="1.5" stroke-linecap="round" stroke-linejoin="round"/><path d="M6.22073 10.775H6.22747" stroke-width="1.5" stroke-linecap="round" stroke-linejoin="round"/><path d="M6.22073 13.025H6.22747" stroke-width="1.5" stroke-linecap="round" stroke-linejoin="round"/></symbol>
  <symbol id="close" viewBox="0 0 34 34"><path d="M12.7573 12.7573L21.2426 21.2426" stroke-width="1.5" stroke-linecap="round" stroke-linejoin="round"/><path d="M12.7574 21.2426L21.2427 12.7573" stroke-width="1.5" stroke-linecap="round" stroke-linejoin="round"/></symbol>
  <symbol id="profile-tick" viewBox="0 0 24 25"><path d="M12.0002 14.5C6.99016 14.5 2.91016 17.86 2.91016 22C2.91016 22.28 3.13016 22.5 3.41016 22.5H20.5902C20.8702 22.5 21.0902 22.28 21.0902 22C21.0902 17.86 17.0102 14.5 12.0002 14.5Z"/><path d="M12 2.5C10.82 2.5 9.74 2.91 8.88 3.6C7.73 4.51 7 5.92 7 7.5C7 8.44 7.26 9.32 7.73 10.07C8.59 11.52 10.17 12.5 12 12.5C13.26 12.5 14.41 12.04 15.29 11.25C15.68 10.92 16.02 10.52 16.28 10.07C16.74 9.32 17 8.44 17 7.5C17 4.74 14.76 2.5 12 2.5ZM14.59 6.96L11.92 9.42C11.74 9.59 11.51 9.67 11.28 9.67C11.04 9.67 10.8 9.58 10.62 9.4L9.39 8.16C9.02 7.79 9.02 7.2 9.39 6.83C9.76 6.46 10.35 6.46 10.72 6.83L11.31 7.42L13.32 5.57C13.7 5.22 14.29 5.24 14.64 5.62C14.99 6.01 14.97 6.61 14.59 6.96Z"/></symbol>
  <symbol id="map" viewBox="0 0 24 25">p<g clip-path="url(#clip0_47_1100)">p<path d="M7.63004 4.06999C7.80942 3.97215 8.00004 4.12267 8.00004 4.32701V17.8828C8.00004 18.1061 7.84762 18.2949 7.65024 18.3991C7.64347 18.4027 7.63673 18.4063 7.63004 18.41L5.28004 19.75C3.64004 20.69 2.29004 19.91 2.29004 18.01V8.27999C2.29004 7.64999 2.74004 6.86999 3.30004 6.54999L7.63004 4.06999Z"/>p<path d="M14.7219 6.60227C14.8922 6.68663 15 6.86026 15 7.05034V20.2035C15 20.572 14.615 20.8139 14.283 20.6539L10.033 18.6063C9.85998 18.523 9.75 18.3479 9.75 18.1559V4.94558C9.75 4.57472 10.1396 4.33293 10.4719 4.49751L14.7219 6.60227Z"/>p<path d="M22 6.99V16.72C22 17.35 21.55 18.13 20.99 18.45L17.4986 20.451C17.1653 20.642 16.75 20.4013 16.75 20.0172V6.83032C16.75 6.65081 16.8462 6.48507 17.0021 6.39608L19.01 5.25C20.65 4.31 22 5.09 22 6.99Z"/>p</g>p<defs>p<clipPath id="clip0_47_1100">p<rect width="24" height="24" fill="white" transform="translate(0 0.5)"/>p</clipPath>p</defs>p</symbol>
  <symbol id="medal-star" viewBox="0 0 24 25"><path d="M21.2502 18.97L19.6002 19.36C19.2302 19.45 18.9402 19.73 18.8602 20.1L18.5102 21.57C18.3202 22.37 17.3002 22.62 16.7702 21.99L13.7802 18.55C13.5402 18.27 13.6702 17.83 14.0302 17.74C15.8002 17.31 17.3902 16.32 18.5602 14.91C18.7502 14.68 19.0902 14.65 19.3002 14.86L21.5202 17.08C22.2802 17.84 22.0102 18.79 21.2502 18.97Z"/><path d="M2.70016 18.97L4.35016 19.36C4.72016 19.45 5.01016 19.73 5.09016 20.1L5.44016 21.57C5.63016 22.37 6.65016 22.62 7.18016 21.99L10.1702 18.55C10.4102 18.27 10.2802 17.83 9.92016 17.74C8.15016 17.31 6.56016 16.32 5.39016 14.91C5.20016 14.68 4.86016 14.65 4.65016 14.86L2.43016 17.08C1.67016 17.84 1.94016 18.79 2.70016 18.97Z"/><path d="M12 2.5C8.13 2.5 5 5.63 5 9.5C5 10.95 5.43 12.28 6.17 13.39C7.25 14.99 8.96 16.12 10.95 16.41C11.29 16.47 11.64 16.5 12 16.5C12.36 16.5 12.71 16.47 13.05 16.41C15.04 16.12 16.75 14.99 17.83 13.39C18.57 12.28 19 10.95 19 9.5C19 5.63 15.87 2.5 12 2.5ZM15.06 9.28L14.23 10.11C14.09 10.25 14.01 10.52 14.06 10.72L14.3 11.75C14.49 12.56 14.06 12.88 13.34 12.45L12.34 11.86C12.16 11.75 11.86 11.75 11.68 11.86L10.68 12.45C9.96 12.87 9.53 12.56 9.72 11.75L9.96 10.72C10 10.53 9.93 10.25 9.79 10.11L8.94 9.28C8.45 8.79 8.61 8.3 9.29 8.19L10.36 8.01C10.54 7.98 10.75 7.82 10.83 7.66L11.42 6.48C11.74 5.84 12.26 5.84 12.58 6.48L13.17 7.66C13.25 7.82 13.46 7.98 13.65 8.01L14.72 8.19C15.39 8.3 15.55 8.79 15.06 9.28Z"/></symbol>
  <symbol id="routing" viewBox="0 0 20 20"><g clip-path="url(#clip0_44_834)"><path d="M9.99857 16.4583H7.76523C6.79857 16.4583 5.9569 15.875 5.62357 14.975C5.2819 14.075 5.5319 13.0833 6.2569 12.4417L12.9152 6.61667C13.3152 6.26667 13.3236 5.79167 13.2069 5.46667C13.0819 5.14167 12.7652 4.79167 12.2319 4.79167H9.99857C9.6569 4.79167 9.37357 4.50833 9.37357 4.16667C9.37357 3.825 9.6569 3.54167 9.99857 3.54167H12.2319C13.1986 3.54167 14.0402 4.125 14.3736 5.025C14.7152 5.925 14.4652 6.91667 13.7402 7.55833L7.0819 13.3833C6.6819 13.7333 6.67357 14.2083 6.79023 14.5333C6.91523 14.8583 7.2319 15.2083 7.76523 15.2083H9.99857C10.3402 15.2083 10.6236 15.4917 10.6236 15.8333C10.6236 16.175 10.3402 16.4583 9.99857 16.4583Z"/><path d="M16.6657 12.5H14.1657C13.249 12.5 12.499 13.25 12.499 14.1667V16.6667C12.499 17.5833 13.249 18.3333 14.1657 18.3333H16.6657C17.5824 18.3333 18.3324 17.5833 18.3324 16.6667V14.1667C18.3324 13.25 17.5824 12.5 16.6657 12.5ZM15.424 16.25C14.9657 16.25 14.5907 15.875 14.5907 15.4167C14.5907 14.9583 14.9574 14.5833 15.424 14.5833H15.4324C15.8907 14.5833 16.2657 14.9583 16.2657 15.4167C16.2657 15.875 15.8907 16.25 15.424 16.25Z"/><path d="M4.55729 1.66667C2.94896 1.66667 1.64062 2.975 1.64062 4.58333C1.64062 6.19167 2.94896 7.5 4.55729 7.5C6.16563 7.5 7.47396 6.19167 7.47396 4.58333C7.47396 2.975 6.17396 1.66667 4.55729 1.66667ZM4.59063 5.41667C4.13229 5.41667 3.75729 5.04167 3.75729 4.58333C3.75729 4.125 4.12396 3.75 4.59063 3.75H4.59896C5.05729 3.75 5.43229 4.125 5.43229 4.58333C5.43229 5.04167 5.05729 5.41667 4.59063 5.41667Z"/></g><defs><clipPath id="clip0_44_834"><rect width="20" height="20" fill="white"/></clipPath></defs></symbol>
  <symbol id="profile-2user" viewBox="0 0 20 20"><path d="M7.50033 1.66667C5.31699 1.66667 3.54199 3.44167 3.54199 5.625C3.54199 7.76667 5.21699 9.5 7.40033 9.575C7.46699 9.56667 7.53366 9.56667 7.58366 9.575C7.60033 9.575 7.60866 9.575 7.62532 9.575C7.63366 9.575 7.63366 9.575 7.64199 9.575C9.77532 9.5 11.4503 7.76667 11.4587 5.625C11.4587 3.44167 9.68366 1.66667 7.50033 1.66667Z"/><path d="M11.7338 11.7917C9.40879 10.2417 5.61712 10.2417 3.27546 11.7917C2.21712 12.5 1.63379 13.4583 1.63379 14.4833C1.63379 15.5083 2.21712 16.4583 3.26712 17.1583C4.43379 17.9417 5.96712 18.3333 7.50046 18.3333C9.03379 18.3333 10.5671 17.9417 11.7338 17.1583C12.7838 16.45 13.3671 15.5 13.3671 14.4667C13.3588 13.4417 12.7838 12.4917 11.7338 11.7917Z"/><path d="M16.6588 6.11667C16.7921 7.73333 15.6421 9.15 14.0505 9.34167C14.0421 9.34167 14.0421 9.34167 14.0338 9.34167H14.0088C13.9588 9.34167 13.9088 9.34167 13.8671 9.35833C13.0588 9.4 12.3171 9.14167 11.7588 8.66667C12.6171 7.9 13.1088 6.75 13.0088 5.5C12.9505 4.825 12.7171 4.20833 12.3671 3.68333C12.6838 3.525 13.0505 3.425 13.4255 3.39167C15.0588 3.25 16.5171 4.46667 16.6588 6.11667Z"/><path d="M18.3249 13.825C18.2582 14.6333 17.7415 15.3333 16.8749 15.8083C16.0415 16.2667 14.9915 16.4833 13.9499 16.4583C14.5499 15.9167 14.8999 15.2417 14.9665 14.525C15.0499 13.4917 14.5582 12.5 13.5749 11.7083C13.0165 11.2667 12.3665 10.9167 11.6582 10.6583C13.4999 10.125 15.8165 10.4833 17.2415 11.6333C18.0082 12.25 18.3999 13.025 18.3249 13.825Z"/></symbol>
  <symbol id="security" viewBox="0 0 20 20"><path d="M15.2747 4.725L5.49141 14.5083C5.12474 14.875 4.50807 14.825 4.20807 14.3917C3.17474 12.8833 2.56641 11.1 2.56641 9.26667V5.60833C2.56641 4.925 3.08307 4.15 3.71641 3.89167L8.35807 1.99167C9.40807 1.55833 10.5747 1.55833 11.6247 1.99167L14.9997 3.36667C15.5497 3.59167 15.6914 4.30833 15.2747 4.725Z"/><path d="M16.0587 5.86667C16.6003 5.40833 17.4253 5.8 17.4253 6.50833V9.26667C17.4253 13.3417 14.467 17.1583 10.4253 18.275C10.1503 18.35 9.85033 18.35 9.567 18.275C8.38366 17.9417 7.28366 17.3833 6.342 16.65C5.942 16.3417 5.90033 15.7583 6.25033 15.4C8.067 13.5417 13.3837 8.125 16.0587 5.86667Z"/></symbol>
  <symbol id="calendar-2" viewBox="0 0 20 20"><path d="M13.9582 2.96667V1.66667C13.9582 1.325 13.6749 1.04167 13.3332 1.04167C12.9915 1.04167 12.7082 1.325 12.7082 1.66667V2.91667H7.29153V1.66667C7.29153 1.325 7.0082 1.04167 6.66653 1.04167C6.32487 1.04167 6.04153 1.325 6.04153 1.66667V2.96667C3.79153 3.175 2.69987 4.51667 2.5332 6.50833C2.51653 6.75 2.71653 6.95 2.94987 6.95H17.0499C17.2915 6.95 17.4915 6.74167 17.4665 6.50833C17.2999 4.51667 16.2082 3.175 13.9582 2.96667Z"/><path d="M16.6667 8.2H3.33333C2.875 8.2 2.5 8.575 2.5 9.03333V14.1667C2.5 16.6667 3.75 18.3333 6.66667 18.3333H13.3333C16.25 18.3333 17.5 16.6667 17.5 14.1667V9.03333C17.5 8.575 17.125 8.2 16.6667 8.2ZM7.675 15.175C7.63333 15.2083 7.59167 15.25 7.55 15.275C7.5 15.3083 7.45 15.3333 7.4 15.35C7.35 15.375 7.3 15.3917 7.25 15.4C7.19167 15.4083 7.14167 15.4167 7.08333 15.4167C6.975 15.4167 6.86667 15.3917 6.76667 15.35C6.65833 15.3083 6.575 15.25 6.49167 15.175C6.34167 15.0167 6.25 14.8 6.25 14.5833C6.25 14.3667 6.34167 14.15 6.49167 13.9917C6.575 13.9167 6.65833 13.8583 6.76667 13.8167C6.91667 13.75 7.08333 13.7333 7.25 13.7667C7.3 13.775 7.35 13.7917 7.4 13.8167C7.45 13.8333 7.5 13.8583 7.55 13.8917C7.59167 13.925 7.63333 13.9583 7.675 13.9917C7.825 14.15 7.91667 14.3667 7.91667 14.5833C7.91667 14.8 7.825 15.0167 7.675 15.175ZM7.675 12.2583C7.51667 12.4083 7.3 12.5 7.08333 12.5C6.86667 12.5 6.65 12.4083 6.49167 12.2583C6.34167 12.1 6.25 11.8833 6.25 11.6667C6.25 11.45 6.34167 11.2333 6.49167 11.075C6.725 10.8417 7.09167 10.7667 7.4 10.9C7.50833 10.9417 7.6 11 7.675 11.075C7.825 11.2333 7.91667 11.45 7.91667 11.6667C7.91667 11.8833 7.825 12.1 7.675 12.2583ZM10.5917 15.175C10.4333 15.325 10.2167 15.4167 10 15.4167C9.78333 15.4167 9.56667 15.325 9.40833 15.175C9.25833 15.0167 9.16667 14.8 9.16667 14.5833C9.16667 14.3667 9.25833 14.15 9.40833 13.9917C9.71667 13.6833 10.2833 13.6833 10.5917 13.9917C10.7417 14.15 10.8333 14.3667 10.8333 14.5833C10.8333 14.8 10.7417 15.0167 10.5917 15.175ZM10.5917 12.2583C10.55 12.2917 10.5083 12.325 10.4667 12.3583C10.4167 12.3917 10.3667 12.4167 10.3167 12.4333C10.2667 12.4583 10.2167 12.475 10.1667 12.4833C10.1083 12.4917 10.0583 12.5 10 12.5C9.78333 12.5 9.56667 12.4083 9.40833 12.2583C9.25833 12.1 9.16667 11.8833 9.16667 11.6667C9.16667 11.45 9.25833 11.2333 9.40833 11.075C9.48333 11 9.575 10.9417 9.68333 10.9C9.99167 10.7667 10.3583 10.8417 10.5917 11.075C10.7417 11.2333 10.8333 11.45 10.8333 11.6667C10.8333 11.8833 10.7417 12.1 10.5917 12.2583ZM13.5083 15.175C13.35 15.325 13.1333 15.4167 12.9167 15.4167C12.7 15.4167 12.4833 15.325 12.325 15.175C12.175 15.0167 12.0833 14.8 12.0833 14.5833C12.0833 14.3667 12.175 14.15 12.325 13.9917C12.6333 13.6833 13.2 13.6833 13.5083 13.9917C13.6583 14.15 13.75 14.3667 13.75 14.5833C13.75 14.8 13.6583 15.0167 13.5083 15.175ZM13.5083 12.2583C13.4667 12.2917 13.425 12.325 13.3833 12.3583C13.3333 12.3917 13.2833 12.4167 13.2333 12.4333C13.1833 12.4583 13.1333 12.475 13.0833 12.4833C13.025 12.4917 12.9667 12.5 12.9167 12.5C12.7 12.5 12.4833 12.4083 12.325 12.2583C12.175 12.1 12.0833 11.8833 12.0833 11.6667C12.0833 11.45 12.175 11.2333 12.325 11.075C12.4083 11 12.4917 10.9417 12.6 10.9C12.75 10.8333 12.9167 10.8167 13.0833 10.85C13.1333 10.8583 13.1833 10.875 13.2333 10.9C13.2833 10.9167 13.3333 10.9417 13.3833 10.975C13.425 11.0083 13.4667 11.0417 13.5083 11.075C13.6583 11.2333 13.75 11.45 13.75 11.6667C13.75 11.8833 13.6583 12.1 13.5083 12.2583Z"/></symbol>
  <symbol id="edit" viewBox="0 0 16 16"><path d="M8.83994 2.39994L3.36661 8.19327C3.15994 8.41327 2.95994 8.84661 2.91994 9.14661L2.67328 11.3066C2.58661 12.0866 3.14661 12.6199 3.91994 12.4866L6.06661 12.1199C6.36661 12.0666 6.78661 11.8466 6.99327 11.6199L12.4666 5.82661C13.4133 4.82661 13.8399 3.68661 12.3666 2.29327C10.8999 0.913274 9.78661 1.39994 8.83994 2.39994Z" stroke-miterlimit="10" stroke-linecap="round" stroke-linejoin="round"/><path d="M7.92664 3.3667C8.2133 5.2067 9.70664 6.61337 11.56 6.80003L7.92664 3.3667Z"/><path d="M7.92664 3.3667C8.2133 5.2067 9.70664 6.61337 11.56 6.80003" stroke-miterlimit="10" stroke-linecap="round" stroke-linejoin="round"/><path d="M2 14.6666H14" stroke-miterlimit="10" stroke-linecap="round" stroke-linejoin="round"/></symbol>
  <symbol id="my-tours" viewBox="0 0 20 20"><path d="M15.4003 10.2083C15.6336 10.2083 15.8336 10.0083 15.8169 9.775C15.5919 6.75 13.0753 4.375 10.0003 4.375C6.92526 4.375 4.40859 6.75 4.18359 9.775C4.16692 10.0083 4.36692 10.2083 4.60026 10.2083H15.4003Z"/><path d="M18.333 10.8333H18.2663C17.808 10.8333 17.433 10.4583 17.433 9.99999C17.433 9.54166 17.808 9.16666 18.2663 9.16666C18.7247 9.16666 19.133 9.54166 19.133 9.99999C19.133 10.4583 18.7913 10.8333 18.333 10.8333ZM1.73301 10.8333H1.66634C1.20801 10.8333 0.833008 10.4583 0.833008 9.99999C0.833008 9.54166 1.20801 9.16666 1.66634 9.16666C2.12467 9.16666 2.53301 9.54166 2.53301 9.99999C2.53301 10.4583 2.19134 10.8333 1.73301 10.8333ZM15.8413 4.99166C15.6247 4.99166 15.4163 4.90833 15.2497 4.74999C14.9247 4.42499 14.9247 3.89999 15.2497 3.57499L15.358 3.46666C15.683 3.14166 16.208 3.14166 16.533 3.46666C16.858 3.79166 16.858 4.31666 16.533 4.64166L16.4247 4.74999C16.2663 4.90833 16.058 4.99166 15.8413 4.99166ZM4.15801 4.99166C3.94134 4.99166 3.73301 4.90833 3.56634 4.74999L3.45801 4.63333C3.13301 4.30833 3.13301 3.78333 3.45801 3.45833C3.78301 3.13333 4.30801 3.13333 4.63301 3.45833L4.74134 3.56666C5.06634 3.89166 5.06634 4.41666 4.74134 4.74166C4.58301 4.90833 4.36634 4.99166 4.15801 4.99166ZM9.99967 2.53333C9.54134 2.53333 9.16634 2.19166 9.16634 1.73333V1.66666C9.16634 1.20833 9.54134 0.833328 9.99967 0.833328C10.458 0.833328 10.833 1.20833 10.833 1.66666C10.833 2.12499 10.458 2.53333 9.99967 2.53333Z"/><path d="M16.6663 13.125H3.33301C2.99134 13.125 2.70801 12.8417 2.70801 12.5C2.70801 12.1583 2.99134 11.875 3.33301 11.875H16.6663C17.008 11.875 17.2913 12.1583 17.2913 12.5C17.2913 12.8417 17.008 13.125 16.6663 13.125Z"/><path d="M15 15.625H5C4.65833 15.625 4.375 15.3417 4.375 15C4.375 14.6583 4.65833 14.375 5 14.375H15C15.3417 14.375 15.625 14.6583 15.625 15C15.625 15.3417 15.3417 15.625 15 15.625Z"/><path d="M12.5 18.125H7.5C7.15833 18.125 6.875 17.8417 6.875 17.5C6.875 17.1583 7.15833 16.875 7.5 16.875H12.5C12.8417 16.875 13.125 17.1583 13.125 17.5C13.125 17.8417 12.8417 18.125 12.5 18.125Z"/></symbol><svg id="transactions" viewBox="0 0 20 20" fill="none"><path d="M18.3333 12.5C18.3333 15.725 15.725 18.3333 12.5 18.3333L13.375 16.875" stroke-linecap="round" stroke-linejoin="round"/><path d="M1.66699 7.50001C1.66699 4.27501 4.27533 1.66667 7.50033 1.66667L6.62533 3.12501" stroke-linecap="round" stroke-linejoin="round"/><path d="M11.8496 2.16667H16.4834C17.2295 2.16668 17.4943 2.27125 17.6123 2.38835C17.7289 2.50409 17.833 2.7629 17.833 3.49968V3.50847H10.5V3.49968C10.5 2.76325 10.6042 2.50417 10.7207 2.38835C10.8387 2.27127 11.1037 2.16671 11.8496 2.16667Z"/><path d="M17.833 5.34166V6.91685C17.833 7.6536 17.7289 7.91241 17.6123 8.02818C17.4943 8.14528 17.2295 8.24986 16.4834 8.24986H11.8496C11.1037 8.24983 10.8387 8.14527 10.7207 8.02818C10.6042 7.91233 10.5 7.65325 10.5 6.91685V5.34166H17.833Z" /><path d="M3.5166 11.75H8.15039C8.89653 11.75 9.16131 11.8546 9.2793 11.9717C9.39588 12.0874 9.49997 12.3462 9.5 13.083V13.0918H2.16699V13.083C2.16702 12.3466 2.27118 12.0875 2.3877 11.9717C2.50567 11.8546 2.77071 11.75 3.5166 11.75Z"/><path d="M2.08366 14.425C1.85033 14.425 1.66699 14.6083 1.66699 14.8417V15.675V16.5C1.66699 17.9667 2.03366 18.3333 3.51699 18.3333H8.15033C9.63366 18.3333 10.0003 17.9667 10.0003 16.5V15.675V14.8417C10.0003 14.6083 9.81699 14.425 9.58366 14.425H2.08366Z"/></svg>
  <symbol id="sun-fog" viewBox="0 0 18 19"><path d="M13.875 9.5C13.875 6.8075 11.6925 4.625 9 4.625C6.3075 4.625 4.125 6.8075 4.125 9.5" stroke-opacity="0.9" stroke-width="1.5" stroke-linecap="round" stroke-linejoin="round"/><path d="M3.74249 4.24249L3.64499 4.14499M14.2575 4.24249L14.355 4.14499L14.2575 4.24249ZM9 2.05999V2V2.05999ZM1.56001 9.5H1.5H1.56001ZM16.5 9.5H16.44H16.5Z" stroke-opacity="0.9" stroke-linecap="round" stroke-linejoin="round"/><path d="M3 11.75H15" stroke-opacity="0.9" stroke-miterlimit="10" stroke-linecap="round" stroke-linejoin="round"/><path d="M4.5 14H13.5" stroke-opacity="0.9" stroke-miterlimit="10" stroke-linecap="round" stroke-linejoin="round"/><path d="M6.75 16.25H11.25" stroke-opacity="0.9" stroke-miterlimit="10" stroke-linecap="round" stroke-linejoin="round"/></symbol>
</svg>